<svg xmlns="http://www.w3.org/2000/svg" xmlns:xlink="http://www.w3.org/1999/xlink" viewBox="0 0 64.31 62.6"><defs><style>.cls-1{fill:url(#Gradiente_sem_nome_41);}.cls-2{fill:url(#Gradiente_sem_nome_2);}.cls-3{fill:url(#Gradiente_sem_nome_39);}.cls-4{fill:url(#Gradiente_sem_nome_36);}.cls-5{fill:#fff;fill-opacity:0.14;}.cls-6{fill:url(#Gradiente_sem_nome_42);}</style><radialGradient id="Gradiente_sem_nome_41" cx="56.63" cy="60.43" r="57.54" gradientUnits="userSpaceOnUse"><stop offset="0.34" stop-color="#5496c0"/><stop offset="0.49" stop-color="#3e79a5"/><stop offset="0.7" stop-color="#255a88"/><stop offset="0.88" stop-color="#164775"/><stop offset="1" stop-color="#11406f"/></radialGradient><linearGradient id="Gradiente_sem_nome_2" x1="0.11" y1="33.63" x2="64.31" y2="33.63" gradientUnits="userSpaceOnUse"><stop offset="0" stop-color="#fff" stop-opacity="0"/><stop offset="0.2" stop-color="#fff" stop-opacity="0.01"/><stop offset="0.35" stop-color="#fff" stop-opacity="0.05"/><stop offset="0.48" stop-color="#fff" stop-opacity="0.11"/><stop offset="0.61" stop-color="#fff" stop-opacity="0.21"/><stop offset="0.73" stop-color="#fff" stop-opacity="0.32"/><stop offset="0.85" stop-color="#fff" stop-opacity="0.47"/><stop offset="0.96" stop-color="#fff" stop-opacity="0.64"/><stop offset="1" stop-color="#fff" stop-opacity="0.7"/></linearGradient><linearGradient id="Gradiente_sem_nome_39" x1="1.12" y1="24.98" x2="61.6" y2="24.98" gradientUnits="userSpaceOnUse"><stop offset="0.19" stop-color="#1d5c8d"/><stop offset="0.23" stop-color="#3c719b"/><stop offset="0.3" stop-color="#6e92b0"/><stop offset="0.33" stop-color="#819fb9"/><stop offset="0.37" stop-color="#959a9c"/><stop offset="0.42" stop-color="#ae9579"/><stop offset="0.47" stop-color="#c3905c"/><stop offset="0.53" stop-color="#d48d43"/><stop offset="0.6" stop-color="#e18a31"/><stop offset="0.68" stop-color="#ea8824"/><stop offset="0.79" stop-color="#ef861c"/><stop offset="1" stop-color="#f1861a"/></linearGradient><linearGradient id="Gradiente_sem_nome_36" x1="6.63" y1="32.83" x2="49.09" y2="32.83" gradientUnits="userSpaceOnUse"><stop offset="0" stop-color="#1d5c8d"/><stop offset="0.08" stop-color="#3c719b"/><stop offset="0.23" stop-color="#6e92b0"/><stop offset="0.3" stop-color="#819fb9"/><stop offset="0.48" stop-color="#a99681"/><stop offset="0.64" stop-color="#c88f54"/><stop offset="0.79" stop-color="#de8a34"/><stop offset="0.92" stop-color="#ec8721"/><stop offset="1" stop-color="#f1861a"/></linearGradient><radialGradient id="Gradiente_sem_nome_42" cx="7.36" cy="34.79" fy="23.99345531807677" r="20.08" gradientTransform="translate(0 -20.2) scale(1 1.58)" gradientUnits="userSpaceOnUse"><stop offset="0" stop-color="#5496c0"/><stop offset="0.24" stop-color="#3e79a5"/><stop offset="0.55" stop-color="#255a88"/><stop offset="0.82" stop-color="#164775"/><stop offset="1" stop-color="#11406f"/></radialGradient></defs><g id="Camada_2" data-name="Camada 2"><g id="Camada_1-2" data-name="Camada 1"><path class="cls-1" d="M64.31,62.58A14.72,14.72,0,0,0,49.59,47.87H46.22L20.59,11A14.71,14.71,0,0,0,.11,7.29L36.48,59.63c1,1.4,3.9,2.95,3.9,2.95H41.7a7.21,7.21,0,0,0,.93,0Z"/><path class="cls-2" d="M64.31,62.58A14.72,14.72,0,0,0,49.59,47.87H46.22L20.59,11A14.71,14.71,0,0,0,.11,7.29L36.48,59.63c1,1.4,3.9,2.95,3.9,2.95H41.7a7.21,7.21,0,0,0,.93,0Z"/><path class="cls-3" d="M47.2,0,32.72,14.35l6.9,2.38C40,48,4.14,46,1.12,24.81c1.15,34.26,52.45,34,53.19-3.69l7.29,2.33ZM30.12,46.32a40.57,40.57,0,0,1-5.3.34c-14.38,0-18.19-8.81-18.19-8.81a19.92,19.92,0,0,0,12.91,4.7A24.24,24.24,0,0,0,31.22,39.4C44.31,32.35,38.48,19,45,19h.31C52.21,19.44,51.11,43.65,30.12,46.32Z"/><path class="cls-4" d="M30.12,46.32a40.57,40.57,0,0,1-5.3.34c-14.38,0-18.19-8.81-18.19-8.81a19.92,19.92,0,0,0,12.91,4.7A24.24,24.24,0,0,0,31.22,39.4C44.31,32.35,38.48,19,45,19h.31C52.21,19.44,51.11,43.65,30.12,46.32Z"/><path class="cls-5" d="M30.12,46.32a40.57,40.57,0,0,1-5.3.34c-14.38,0-18.19-8.81-18.19-8.81a19.92,19.92,0,0,0,12.91,4.7A24.24,24.24,0,0,0,31.22,39.4C44.31,32.35,38.48,19,45,19h.31C52.21,19.44,51.11,43.65,30.12,46.32Z"/><path class="cls-6" d="M0,7.37H.74a14,14,0,0,1,14,14V62.21a0,0,0,0,1,0,0H0a0,0,0,0,1,0,0V7.37A0,0,0,0,1,0,7.37Z"/></g></g></svg>